# xmcd
#
# Track frame offsets:
#	150
#	30397
#	62942
#	107147
#
# Disc length: 1665 seconds
#
# Revision: 2
# Processed by: cddbd v1.5.2PL0 Copyright (c) Steve Scherf et al.
# Submitted via: EZCDAudioConverter 1.3.4.1
#
DISCID=2e067f04
DTITLE=Madonna - Causing A Commotion
DYEAR=1987
DGENRE=
TTITLE0=Causing A Commotion [Silver Screen Mix]
TTITLE1=Causing A Commotion [Dub Version]
TTITLE2=Causing A Commotion [Movie House Mix]
TTITLE3=Jimmy, Jimmy
EXTD=
EXTT0=
EXTT1=
EXTT2=
EXTT3=
PLAYORDER=
